<?xml version="1.0" standalone="no"?>
<svg xmlns:xlink="http://www.w3.org/1999/xlink" id="wave" style="transform:rotate(0deg); transition: 0.3s" viewBox="0 0 1440 150" version="1.1" xmlns="http://www.w3.org/2000/svg"><defs><linearGradient id="sw-gradient-0" x1="0" x2="0" y1="1" y2="0"><stop stop-color="rgba(3, 6, 55, 1)" offset="0%"/><stop stop-color="rgba(61, 7, 84, 1)" offset="100%"/></linearGradient></defs><path style="transform:translate(0, 0px); opacity:1; height:50px" fill="url(#sw-gradient-0)" d="M0,30L48,37.5C96,45,192,60,288,62.5C384,65,480,55,576,42.5C672,30,768,15,864,22.5C960,30,1056,60,1152,77.5C1248,95,1344,100,1440,87.5C1536,75,1632,45,1728,47.5C1824,50,1920,85,2016,97.5C2112,110,2208,100,2304,90C2400,80,2496,70,2592,60C2688,50,2784,40,2880,37.5C2976,35,3072,40,3168,52.5C3264,65,3360,85,3456,92.5C3552,100,3648,95,3744,92.5C3840,90,3936,90,4032,82.5C4128,75,4224,60,4320,57.5C4416,55,4512,65,4608,65C4704,65,4800,55,4896,57.5C4992,60,5088,75,5184,82.5C5280,90,5376,90,5472,85C5568,80,5664,70,5760,67.5C5856,65,5952,70,6048,70C6144,70,6240,65,6336,75C6432,85,6528,110,6624,120C6720,130,6816,125,6864,122.5L6912,120L6912,150L6864,150C6816,150,6720,150,6624,150C6528,150,6432,150,6336,150C6240,150,6144,150,6048,150C5952,150,5856,150,5760,150C5664,150,5568,150,5472,150C5376,150,5280,150,5184,150C5088,150,4992,150,4896,150C4800,150,4704,150,4608,150C4512,150,4416,150,4320,150C4224,150,4128,150,4032,150C3936,150,3840,150,3744,150C3648,150,3552,150,3456,150C3360,150,3264,150,3168,150C3072,150,2976,150,2880,150C2784,150,2688,150,2592,150C2496,150,2400,150,2304,150C2208,150,2112,150,2016,150C1920,150,1824,150,1728,150C1632,150,1536,150,1440,150C1344,150,1248,150,1152,150C1056,150,960,150,864,150C768,150,672,150,576,150C480,150,384,150,288,150C192,150,96,150,48,150L0,150Z"/></svg>